<?xml version="1.0" encoding="UTF-8" standalone="no"?>
<svg
   xmlns:dc="http://purl.org/dc/elements/1.1/"
   xmlns:cc="http://creativecommons.org/ns#"
   xmlns:rdf="http://www.w3.org/1999/02/22-rdf-syntax-ns#"
   xmlns:svg="http://www.w3.org/2000/svg"
   xmlns="http://www.w3.org/2000/svg"
   xmlns:sodipodi="http://sodipodi.sourceforge.net/DTD/sodipodi-0.dtd"
   xmlns:inkscape="http://www.inkscape.org/namespaces/inkscape"
   width="210mm"
   height="297mm"
   viewBox="0 0 210 297"
   version="1.1"
   id="svg8"
   inkscape:version="1.0.2 (e86c870879, 2021-01-15)"
   sodipodi:docname="portfolio-logo.svg">
  <defs
     id="defs2">
    <inkscape:path-effect
       effect="fillet_chamfer"
       id="path-effect2455"
       is_visible="true"
       lpeversion="1"
       satellites_param="F,0,0,1,0,1.3229167,0,1 @ F,0,0,1,0,1.3229167,0,1 @ F,0,0,1,0,1.3229167,0,1 @ F,0,0,1,0,1.3229167,0,1"
       unit="px"
       method="auto"
       mode="F"
       radius="5"
       chamfer_steps="1"
       flexible="false"
       use_knot_distance="true"
       apply_no_radius="true"
       apply_with_radius="true"
       only_selected="false"
       hide_knots="false" />
    <inkscape:path-effect
       effect="fillet_chamfer"
       id="path-effect2442"
       is_visible="true"
       lpeversion="1"
       satellites_param="F,0,0,1,0,2.6458333,0,1 @ F,0,0,1,0,2.6458333,0,1 @ F,0,0,1,0,2.6458333,0,1 @ F,0,0,1,0,2.6458333,0,1"
       unit="px"
       method="auto"
       mode="F"
       radius="10"
       chamfer_steps="1"
       flexible="false"
       use_knot_distance="true"
       apply_no_radius="true"
       apply_with_radius="true"
       only_selected="false"
       hide_knots="false" />
    <inkscape:path-effect
       effect="fillet_chamfer"
       id="path-effect2430"
       is_visible="true"
       lpeversion="1"
       satellites_param="F,0,0,1,0,2.6458333,0,1 @ F,0,0,1,0,2.6458333,0,1 @ F,0,0,1,0,2.6458333,0,1 @ F,0,0,1,0,2.6458333,0,1"
       unit="px"
       method="auto"
       mode="F"
       radius="10"
       chamfer_steps="1"
       flexible="false"
       use_knot_distance="true"
       apply_no_radius="true"
       apply_with_radius="true"
       only_selected="false"
       hide_knots="false" />
    <inkscape:path-effect
       effect="fillet_chamfer"
       id="path-effect2407"
       is_visible="true"
       lpeversion="1"
       satellites_param="F,0,0,1,0,2.6458333,0,1 @ F,0,0,1,0,2.6458333,0,1 @ F,0,0,1,0,2.6458333,0,1 @ F,0,0,1,0,2.6458333,0,1"
       unit="px"
       method="auto"
       mode="F"
       radius="10"
       chamfer_steps="1"
       flexible="false"
       use_knot_distance="true"
       apply_no_radius="true"
       apply_with_radius="true"
       only_selected="false"
       hide_knots="false" />
  </defs>
  <sodipodi:namedview
     id="base"
     pagecolor="#ffffff"
     bordercolor="#666666"
     borderopacity="1.0"
     inkscape:pageopacity="0.0"
     inkscape:pageshadow="2"
     inkscape:zoom="0.7"
     inkscape:cx="503.84404"
     inkscape:cy="529.88065"
     inkscape:document-units="mm"
     inkscape:current-layer="layer1"
     inkscape:document-rotation="0"
     showgrid="false"
     inkscape:window-width="2164"
     inkscape:window-height="922"
     inkscape:window-x="1668"
     inkscape:window-y="35"
     inkscape:window-maximized="0" />
  <metadata
     id="metadata5">
    <rdf:RDF>
      <cc:Work
         rdf:about="">
        <dc:format>image/svg+xml</dc:format>
        <dc:type
           rdf:resource="http://purl.org/dc/dcmitype/StillImage" />
        <dc:title></dc:title>
      </cc:Work>
    </rdf:RDF>
  </metadata>
  <g
     inkscape:label="Layer 1"
     inkscape:groupmode="layer"
     id="layer1">
    <g
       id="g2624"
       transform="matrix(1,0,0,0.90690062,0,14.915457)">
      <rect
         style="fill:#4400aa;fill-opacity:1;stroke:none;stroke-width:0.264583"
         id="rect1503"
         width="3.5934958"
         height="128.9966"
         x="87.256027"
         y="31.213465" />
      <rect
         style="fill:#f2bc2e;fill-opacity:1;stroke:none;stroke-width:0.264583"
         id="rect1503-2"
         width="3.5934958"
         height="128.9966"
         x="107.86935"
         y="31.213465" />
      <rect
         style="fill:#ff3300;fill-opacity:1;stroke:none;stroke-width:0.264583"
         id="rect1503-0"
         width="3.5934958"
         height="128.9966"
         x="103.74669"
         y="31.213465" />
      <rect
         style="fill:#f57900;fill-opacity:1;stroke:none;stroke-width:0.264583"
         id="rect1503-23"
         width="3.5934958"
         height="128.9966"
         x="99.624023"
         y="31.213465" />
      <rect
         style="fill:#cc00ff;fill-opacity:1;stroke:none;stroke-width:0.264583"
         id="rect1503-7"
         width="3.5934958"
         height="128.9966"
         x="95.501358"
         y="31.213465" />
      <rect
         style="fill:#8800aa;fill-opacity:1;stroke:none;stroke-width:0.264583"
         id="rect1503-5"
         width="3.5934958"
         height="128.9966"
         x="91.378693"
         y="31.213465" />
    </g>
    <path
       style="fill:#4400aa;fill-opacity:1;stroke:none;stroke-width:0.264583px;stroke-linecap:butt;stroke-linejoin:miter;stroke-opacity:1"
       d="m 87.256026,160.21007 c 0,0 0.492123,0.73516 -2.516275,2.95367 -3.008399,2.21851 -54.903993,37.09461 -54.903993,37.09461 l 0.243295,24.28125 58.802057,-60.8834 c 0,0 2.016641,-2.06068 1.968416,-3.44613 -0.04823,-1.38546 -3.5935,0 -3.5935,0 z"
       id="path1561" />
    <path
       style="fill:#8800aa;fill-opacity:1;stroke:none;stroke-width:0.264583px;stroke-linecap:butt;stroke-linejoin:miter;stroke-opacity:1"
       d="m 91.378692,160.21007 c 0,0 0.948997,1.21465 -0.14892,3.55793 -1.097921,2.34328 -54.521745,74.11421 -54.521745,74.11421 l 22.203875,0.16518 35.253657,-73.36639 c 0,0 1.233271,-2.90276 0.80663,-4.47093 -0.426638,-1.56818 -3.593497,0 -3.593497,0"
       id="path1563" />
    <path
       style="fill:#cc00ff;fill-opacity:1;stroke:none;stroke-width:0.264583px;stroke-linecap:butt;stroke-linejoin:miter;stroke-opacity:1"
       d="m 95.501356,159.6809 c 0,0 0.764905,3.1501 -0.14155,5.86361 -0.906457,2.71351 -17.501049,71.5455 -17.501049,71.5455 l 14.604624,0.1328 6.209921,-73.35711 c 0,0 0.421553,-4.1848 0.421553,-4.1848 h -3.593499"
       id="path1565" />
    <path
       style="fill:#f57900;fill-opacity:1;stroke:none;stroke-width:0.264583px;stroke-linecap:butt;stroke-linejoin:miter;stroke-opacity:1"
       d="m 99.624022,160.21007 c 0,0 0.311909,7.21686 0.586198,7.89134 0.27428,0.67448 5.84696,69.94431 5.84696,69.94431 l 14.8892,-0.006 -17.92437,-72.18644 c 0,0 -0.6774,-1.87745 0.19551,-5.64276 0.87292,-3.76532 -3.593498,0 -3.593498,0 z"
       id="path1567" />
    <path
       style="fill:#ff3300;fill-opacity:1;stroke:none;stroke-width:0.264583px;stroke-linecap:butt;stroke-linejoin:miter;stroke-opacity:1"
       d="m 103.74669,160.21007 c 0,0 -0.45867,3.92341 0.94006,5.54372 1.39873,1.62031 35.05309,72.56738 35.05309,72.56738 l 22.18673,-0.18043 -54.22328,-73.77525 c 0,0 -0.97343,-2.00438 -0.3631,-4.15542 0.61032,-2.15105 -3.5935,0 -3.5935,0"
       id="path1569" />
    <path
       style="fill:#f2bc2e;fill-opacity:1;stroke:none;stroke-width:0.264583px;stroke-linecap:butt;stroke-linejoin:miter;stroke-opacity:1"
       d="m 107.86935,160.21007 c 0,0 -0.63623,1.97975 1.93159,4.07215 2.56782,2.09239 60.72689,62.46483 60.72689,62.46483 l -0.006,-25.23557 -58.23145,-39.32098 c 0,0 -1.64549,-0.85462 -0.82707,-1.98043 0.81841,-1.12582 -4.12266,0 -4.12266,0"
       id="path1571" />
    <g
       id="g2616"
       transform="translate(-184.80511,-3.9529181)">
      <rect
         style="fill:#e5c38f;fill-opacity:1;stroke:none;stroke-width:0.264583;stroke-opacity:1"
         id="rect2459"
         width="84.36554"
         height="4.0711279"
         x="241.82272"
         y="199.94366" />
      <g
         id="g2599">
        <path
           style="fill:#fae2bb;fill-opacity:1;stroke:none;stroke-width:0.267598;stroke-opacity:1"
           id="rect2405"
           width="77.933533"
           height="55.737125"
           x="244.6301"
           y="109.77918"
           inkscape:path-effect="#path-effect2407"
           d="m 247.27593,109.77918 h 72.64187 a 2.6458333,2.6458333 45 0 1 2.64583,2.64584 v 50.44545 a 2.6458333,2.6458333 135 0 1 -2.64583,2.64584 h -72.64187 a 2.6458333,2.6458333 45 0 1 -2.64583,-2.64584 v -50.44545 a 2.6458333,2.6458333 135 0 1 2.64583,-2.64584 z"
           sodipodi:type="rect" />
        <path
           style="fill:#333366;fill-opacity:1;stroke:none;stroke-width:0.193933;stroke-opacity:1"
           id="rect2405-9"
           width="59.910454"
           height="38.080482"
           x="253.7861"
           y="118.88355"
           inkscape:path-effect="#path-effect2430"
           sodipodi:type="rect"
           d="m 256.43194,118.88355 h 54.61878 a 2.6458333,2.6458333 45 0 1 2.64584,2.64584 v 32.78881 a 2.6458333,2.6458333 135 0 1 -2.64584,2.64584 h -54.61878 a 2.6458333,2.6458333 45 0 1 -2.64584,-2.64584 v -32.78881 a 2.6458333,2.6458333 135 0 1 2.64584,-2.64584 z" />
        <rect
           style="fill:#e5c38f;fill-opacity:1;stroke:none;stroke-width:0.264583;stroke-opacity:1"
           id="rect2449"
           width="57.902863"
           height="4.6391106"
           x="254.96623"
           y="165.29752" />
        <rect
           style="fill:#ce9f57;fill-opacity:1;stroke:none;stroke-width:0.286241;stroke-opacity:1"
           id="rect2451"
           width="13.512694"
           height="5.1195354"
           x="277.48944"
           y="169.8062" />
        <path
           style="fill:#e5c38f;fill-opacity:1;stroke:none;stroke-width:0.264583;stroke-opacity:1"
           id="rect2453"
           width="48.296146"
           height="5.8811469"
           x="259.6637"
           y="174.51366"
           inkscape:path-effect="#path-effect2455"
           d="m 260.98661,174.51366 h 45.65032 a 1.3229167,1.3229167 45 0 1 1.32291,1.32291 v 3.23532 a 1.3229167,1.3229167 135 0 1 -1.32291,1.32291 h -45.65032 a 1.3229167,1.3229167 45 0 1 -1.32291,-1.32291 v -3.23532 a 1.3229167,1.3229167 135 0 1 1.32291,-1.32291 z"
           sodipodi:type="rect" />
        <rect
           style="fill:#fae2bb;fill-opacity:1;stroke:#fae2bb;stroke-width:0.264583;stroke-opacity:1"
           id="rect2457"
           width="88.590935"
           height="22.873268"
           x="239.97458"
           y="177.82745" />
        <rect
           style="fill:#ecc58b;fill-opacity:1;stroke:none;stroke-width:0.264583;stroke-opacity:1"
           id="rect2461"
           width="24.555094"
           height="6.3966632"
           x="244.83191"
           y="181.65694" />
        <rect
           style="fill:#a49579;fill-opacity:1;stroke:#fae2bb;stroke-width:0.264583;stroke-opacity:1"
           id="rect2463"
           width="23.159595"
           height="1.6866006"
           x="299.49762"
           y="184.38422" />
        <rect
           style="fill:#a49579;fill-opacity:1;stroke:none;stroke-width:0.264583;stroke-opacity:1"
           id="rect2465"
           width="0.97886813"
           height="5.2668772"
           x="244.83191"
           y="191.22856" />
        <rect
           style="fill:#a49579;fill-opacity:1;stroke:none;stroke-width:0.264583;stroke-opacity:1"
           id="rect2465-2"
           width="0.97886813"
           height="5.2668772"
           x="246.33994"
           y="191.22856" />
        <rect
           style="fill:#a49579;fill-opacity:1;stroke:none;stroke-width:0.264583;stroke-opacity:1"
           id="rect2465-9"
           width="0.97886813"
           height="5.2668772"
           x="249.35599"
           y="191.22856" />
        <rect
           style="fill:#a49579;fill-opacity:1;stroke:none;stroke-width:0.264583;stroke-opacity:1"
           id="rect2465-3"
           width="0.97886813"
           height="5.2668772"
           x="247.84796"
           y="191.22856" />
        <rect
           style="fill:#a49579;fill-opacity:1;stroke:none;stroke-width:0.264583;stroke-opacity:1"
           id="rect2465-1"
           width="0.97886813"
           height="5.2668772"
           x="250.86401"
           y="191.22856" />
      </g>
    </g>
  </g>
</svg>
